<?xml version="1.0" encoding="UTF-8"?> <svg xmlns="http://www.w3.org/2000/svg" id="final" width="130" height="42" viewBox="0 0 214 70"><defs><style> .cls-1 { fill: #21a12e; } .cls-2 { fill: #ffffff; } </style></defs><path class="cls-1" d="M50.835,20.733l2.1,1.74A68.735,68.735,0,0,0,54.317,9.941l-0.056-.058a47.146,47.146,0,0,0-9.015,12.658A14.4,14.4,0,0,1,50.835,20.733ZM35.884,29.367c-5.705-2.4-8.774-1.471-8.482,2.778A12.582,12.582,0,0,0,35.884,29.367Zm9.69,13.52a21.184,21.184,0,0,1,11.375-4.618c-13.6-7.19-32.185,14.361-48.854,0,8.071,20.853,38.059-2.763,46.574,20.13A34.132,34.132,0,0,0,61.8,47.247,27.9,27.9,0,0,0,45.574,42.887ZM55.832,24.347a37.7,37.7,0,0,1,8.328,9.4,36.183,36.183,0,0,0-1.435-9.166,35.513,35.513,0,0,0-5.431-11.106A46.631,46.631,0,0,1,55.832,24.347ZM46.231,56a14.163,14.163,0,0,1-3.1,10.543q0.8-.384,1.587-0.8,2-1.054,3.88-2.295a35.314,35.314,0,0,0,5.5-4.469A14.753,14.753,0,0,0,46.231,56ZM4.94,35.056a131.538,131.538,0,0,0,16.7-5.756c3.974-4.33,4.675-9.138,9.106-9.6a26.965,26.965,0,0,1,5.1-12.448A30.12,30.12,0,0,1,41.2,13.739,50.088,50.088,0,0,1,50.52,6.566,33.536,33.536,0,0,0,30.1-.23H-0.241V70.193H31.993a44.822,44.822,0,0,0,6.885-1.871C44.366,35.3,9.078,64.9,4.94,35.056Z"></path><path id="evfox" class="cls-2" d="M92.225,53.786A11.929,11.929,0,0,0,96.307,51.8a9.091,9.091,0,0,0,2.668-3.294,10.574,10.574,0,0,0,.961-4.66H92.678a5.377,5.377,0,0,1-.427,2.2,4.484,4.484,0,0,1-1.174,1.607,4.938,4.938,0,0,1-1.788.964,7.846,7.846,0,0,1-2.321.321,7.387,7.387,0,0,1-3.762-.83,4.88,4.88,0,0,1-2.081-2.544,13.122,13.122,0,0,1-.774-4.178H99.936V39.457a19.468,19.468,0,0,0-1.494-8.223,9.842,9.842,0,0,0-4.429-4.714,15.474,15.474,0,0,0-7.2-1.527,16.832,16.832,0,0,0-7.658,1.58,10.411,10.411,0,0,0-4.723,4.821,18.826,18.826,0,0,0-1.6,8.33,18.857,18.857,0,0,0,1.6,8.3,10.352,10.352,0,0,0,4.749,4.848,17.271,17.271,0,0,0,7.791,1.58A19.35,19.35,0,0,0,92.225,53.786ZM81.445,33.216a4.6,4.6,0,0,1,2.081-2.036,7.646,7.646,0,0,1,3.389-.67,6.637,6.637,0,0,1,2.215.348,4.131,4.131,0,0,1,1.681,1.1A5.328,5.328,0,0,1,91.9,33.886a8.684,8.684,0,0,1,.4,2.786H80.458A10.179,10.179,0,0,1,81.445,33.216Zm40.05,20.6,10.512-28.176h-7.471l-4.109,11.892q-0.32,1.018-.773,2.544t-0.881,3.16q-0.427,1.635-.8,2.866h-0.267q-0.321-1.338-.8-3t-0.933-3.161q-0.454-1.5-.774-2.411l-4.109-11.892h-7.845L113.7,53.813H121.5Zm23.907,0V31.368h5.176V25.636H145.4V22.851a2.614,2.614,0,0,1,.613-1.875,2.51,2.51,0,0,1,1.9-.643h2.668V15.4a12.044,12.044,0,0,0-1.414-.4,17.279,17.279,0,0,0-1.708-.295,13.977,13.977,0,0,0-1.681-.107,8.81,8.81,0,0,0-4.536,1.018,5.938,5.938,0,0,0-2.481,2.812,10.263,10.263,0,0,0-.774,4.1v3.107h-4v5.732h4V53.813H145.4Zm30.231-.937A10.581,10.581,0,0,0,180.462,48a18.383,18.383,0,0,0,1.654-8.276,18.314,18.314,0,0,0-1.654-8.33,10.636,10.636,0,0,0-4.829-4.821,20.195,20.195,0,0,0-15.663,0,10.6,10.6,0,0,0-4.856,4.821,18.3,18.3,0,0,0-1.654,8.33A18.369,18.369,0,0,0,155.114,48a10.548,10.548,0,0,0,4.856,4.875A20.2,20.2,0,0,0,175.633,52.875Zm-11.74-5.116a5.3,5.3,0,0,1-2.162-2.786,13.367,13.367,0,0,1-.693-4.607V39.082a13.371,13.371,0,0,1,.693-4.607,5.447,5.447,0,0,1,2.162-2.812,7.1,7.1,0,0,1,3.868-.937,7.22,7.22,0,0,1,3.923.937,5.456,5.456,0,0,1,2.161,2.812,13.369,13.369,0,0,1,.694,4.607v1.286a13.366,13.366,0,0,1-.694,4.607,5.312,5.312,0,0,1-2.161,2.786,7.379,7.379,0,0,1-3.923.911A7.253,7.253,0,0,1,163.893,47.76Zm28.682,6.053,6.084-9.589h0.266l6.084,9.589h8.752L203.728,39.135l9.5-13.5h-8.378l-5.39,8.464h-0.267l-5.336-8.464h-8.912l9.446,13.552L184.2,53.813h8.378Z"></path></svg> 