<svg xmlns="http://www.w3.org/2000/svg" width="79.94" height="56.5" viewBox="0 0 79.94 56.5">
  <defs>
    <style>
      .cls-1 {
        fill: #21a12e;
        fill-rule: evenodd;
      }
    </style>
  </defs>
  <path class="cls-1" d="M1261.94,4987.78c0.17,1.74.04,6.48-4.49,13.07a1.255,1.255,0,0,0,.14,1.59c1.85,1.85,3,3.02,3.8,3.84,1.05,1.07,1.54,1.56,2.24,2.2a1.24,1.24,0,0,0,1.66.02,47.947,47.947,0,0,0,15.41-38.53c-0.74-10.23-8.2-17.65-17.73-17.65A17.745,17.745,0,0,0,1261.94,4987.78Zm1.03-32.96c8.18,0,14.59,6.45,15.24,15.33h0c1.43,19.6-10.21,32.33-13.73,35.7-0.34-.34-0.73-0.74-1.31-1.33-0.69-.7-1.65-1.67-3.09-3.12,5.51-8.49,4.47-14.53,4.02-15.4a1.307,1.307,0,0,0-1.13-.69A15.245,15.245,0,0,1,1262.97,4954.82Zm43.34,32.96c0.17,1.74.05,6.47-4.49,13.07a1.255,1.255,0,0,0,.14,1.59c1.85,1.85,2.99,3.02,3.79,3.83,1.06,1.08,1.55,1.57,2.25,2.21a1.251,1.251,0,0,0,1.66.02,47.947,47.947,0,0,0,15.41-38.53h0c-0.74-10.23-8.2-17.65-17.73-17.65A17.745,17.745,0,0,0,1306.31,4987.78Zm1.03-32.96c8.18,0,14.59,6.45,15.24,15.33h0c1.43,19.6-10.21,32.33-13.73,35.7-0.34-.34-0.73-0.74-1.31-1.33-0.7-.71-1.65-1.68-3.08-3.12,5.5-8.49,4.46-14.53,4.01-15.4a1.307,1.307,0,0,0-1.13-.69A15.245,15.245,0,0,1,1307.34,4954.82Z" transform="translate(-1245.25 -4952.31)"/>
</svg>
